<?xml version="1.0" encoding="utf-8"?>
<!-- Generator: Adobe Illustrator 21.0.0, SVG Export Plug-In . SVG Version: 6.00 Build 0)  -->
<svg version="1.1" id="图层_1" xmlns="http://www.w3.org/2000/svg" xmlns:xlink="http://www.w3.org/1999/xlink" x="0px" y="0px"
	 viewBox="0 0 840 840" style="enable-background:new 0 0 840 840;" xml:space="preserve">
<style type="text/css">
	.st0{fill:#7FB743;}
</style>
<g>
	<g id="XMLID_1560_">
		<path class="st0" d="M419.7,640.2C283.7,640.2,173,529.6,173,393.5s110.7-246.7,246.7-246.7s246.7,110.7,246.7,246.7
			S555.8,640.2,419.7,640.2z M419.7,182c-116.6,0-211.5,94.9-211.5,211.5S303.1,605,419.7,605s211.5-94.9,211.5-211.5
			S536.3,182,419.7,182z"/>
	</g>
	<path class="st0" d="M789.8,323c-2.3,0-4.5,0.3-6.7,0.7c-4.8-25.4-12.2-50.2-22.4-74.2c-18.6-44.1-45.3-83.6-79.3-117.6
		c-34-34-73.6-60.7-117.6-79.3c-91.3-38.6-196.9-38.6-288.1,0C231.6,71.1,192,97.8,158,131.8s-60.7,73.6-79.3,117.6
		c-10.2,24-17.5,48.8-22.4,74.2c-2-0.4-4.1-0.6-6.2-0.6h0c-19.5,0-35.2,15.8-35.2,35.2v70.5c0,19.5,15.8,35.2,35.2,35.2h0
		c19.5,0,35.2-15.8,35.2-35.2v-46.2c1.3-41.3,9.7-81.5,25.8-119.4c16.9-39.9,41-75.7,71.8-106.4c30.8-30.8,66.6-54.9,106.4-71.8
		C371.9,50,467.5,50,550.1,85c39.9,16.8,75.7,41,106.4,71.8c30.8,30.8,54.9,66.6,71.8,106.4c17.5,41.3,26.3,85.1,26.3,130.3
		c0,45.2-8.9,89.1-26.3,130.3c-16.9,39.9-41,75.7-71.8,106.4c-30.8,30.8-66.6,54.9-106.4,71.8c-15.7,6.6-31.8,11.6-48.2,15.7
		c-10.9-24.9-35.7-42.3-64.5-42.3h-35.2c-38.9,0-70.5,31.6-70.5,70.5c0,38.9,31.6,70.5,70.5,70.5h35.2c36.6,0,66.3-28,69.8-63.7
		c19.2-4.7,38.2-10.5,56.6-18.3c44.1-18.6,83.6-45.3,117.6-79.3c34-34,60.7-73.6,79.3-117.6c10.2-24,17.5-48.9,22.4-74.2
		c2.2,0.4,4.4,0.7,6.7,0.7c19.5,0,35.2-15.8,35.2-35.2v-70.5C825.1,338.8,809.3,323,789.8,323z M437.4,781.2h-35.2
		c-19.4,0-35.2-15.8-35.2-35.2s15.8-35.2,35.2-35.2h35.2c19.4,0,35.2,15.8,35.2,35.2S456.8,781.2,437.4,781.2z M506.2,731.1
		c0,0.1,0.1,0.2,0.1,0.3C506.3,731.3,506.2,731.2,506.2,731.1z"/>
</g>
</svg>
